<svg width="262" height="1855" viewBox="0 0 262 1855" fill="none" xmlns="http://www.w3.org/2000/svg">
<path d="M66 1496.5C66 1461.43 94.4299 1433 129.5 1433V1433C164.57 1433 193 1461.43 193 1496.5V1536H66V1496.5Z" fill="#4A4E52"/>
<rect x="23" y="1656" width="218" height="195" rx="97.5" fill="#4A4E52"/>
<path d="M4 1720C4 1664.77 48.7715 1620 104 1620H159.079C213.489 1620 257.914 1663.5 259.057 1717.9L259.5 1739L258.115 1751.2C252.798 1798.04 215.49 1834.81 168.577 1839.44L140.468 1842.21C135.164 1842.74 129.828 1842.84 124.508 1842.51L98.2309 1840.89C48.057 1837.81 7.97121 1797.96 4.5929 1747.8L4 1739V1720Z" fill="#4A4E52"/>
<path d="M66 1572.86H193.5L250 1678.5L16 1672.5L66 1572.86Z" fill="#4A4E52"/>
<rect width="127" height="37" transform="matrix(1 0 0 -1 66 1573)" fill="#4A4E52"/>
<rect y="1611" width="262" height="244" rx="122" fill="#4A4E52"/>
<rect x="38.6641" y="1655.85" width="186.382" height="183.386" rx="91.6928" fill="#1E1E1E"/>
<rect x="125" y="1543" width="9" height="138" fill="#4A4E52"/>
<rect x="117" y="1672" width="26" height="26" rx="13" fill="#4A4E52"/>
<path d="M16 1722C16 1666.77 60.7715 1622 116 1622H147.735C202.174 1622 246.612 1665.55 247.715 1719.97L248 1734.06L247.262 1740.8C242.131 1787.68 204.951 1824.6 158.04 1829.4L140.941 1831.15C135.444 1831.72 129.909 1831.82 124.394 1831.47L109.632 1830.53C59.4603 1827.33 19.463 1787.38 16.2047 1737.21L16 1734.06V1722Z" fill="#FFD936"/>
<path d="M71.5128 1578H187.571L239 1677L26 1671.38L71.5128 1578Z" fill="#FFD936"/>
<rect width="115" height="35" transform="matrix(1 0 0 -1 72 1578)" fill="#FFD936"/>
<rect x="8" y="1614" width="245" height="237" rx="118.5" fill="#FFD936"/>
<rect x="121" width="18" height="1439" fill="#4A4E52"/>
<rect x="104" y="1407" width="52" height="52" rx="26" fill="#4A4E52"/>
</svg>
